# xmcd CD database file
#
# Track frame offsets:
#	150
#	18931
#	37628
#	56357
#	71721
#	92003
#	107120
#	123551
#	141348
#	164328
#	185019
#
# Disc length: 2589 seconds
#
# Revision: 1
# Processed by: cddbd v1.5.1PL0 Copyright (c) Steve Scherf et al.
# Submitted via: CDValet v3.40 - Copyright (c) 1996 - 1998 Greg Leichner
#
DISCID=920a1b0b
DTITLE=The Band - Jubilation
DYEAR=1900
DGENRE=
TTITLE0=Book Faded Brown
TTITLE1=Don't Wait
TTITLE2=Last Train To Memphis
TTITLE3=High Cotton
TTITLE4=Kentucky Downpour
TTITLE5=Bound By Love
TTITLE6=White Cadillac
TTITLE7=If I Should Fall
TTITLE8=Spin Of The Dance
TTITLE9=A Blind Fool's Love
TTITLE10=Where Did All The Frnech Girls Go
EXTD=Promotional Version
EXTT0=
EXTT1=
EXTT2=
EXTT3=
EXTT4=
EXTT5=
EXTT6=
EXTT7=
EXTT8=
EXTT9=
EXTT10=
PLAYORDER=
